<mxfile host="app.diagrams.net" modified="2023-03-23T12:35:28.008Z" agent="5.0 (Windows)" etag="1eAT-g0odkvuBbRbaWSW" version="21.0.10" type="github">
  <diagram name="Strona-1" id="cPT-D0n692hNswxDhYBq">
    <mxGraphModel dx="1434" dy="782" grid="1" gridSize="10" guides="1" tooltips="1" connect="1" arrows="1" fold="1" page="1" pageScale="1" pageWidth="827" pageHeight="1169" math="0" shadow="0">
      <root>
        <mxCell id="0" />
        <mxCell id="1" parent="0" />
        <mxCell id="S36NjcAxN4NFea5-tyP3-3" style="edgeStyle=orthogonalEdgeStyle;rounded=0;orthogonalLoop=1;jettySize=auto;html=1;exitX=0.5;exitY=1;exitDx=0;exitDy=0;entryX=0.5;entryY=0;entryDx=0;entryDy=0;" edge="1" parent="1" source="S36NjcAxN4NFea5-tyP3-1" target="S36NjcAxN4NFea5-tyP3-2">
          <mxGeometry relative="1" as="geometry" />
        </mxCell>
        <mxCell id="S36NjcAxN4NFea5-tyP3-1" value="Start" style="ellipse;whiteSpace=wrap;html=1;" vertex="1" parent="1">
          <mxGeometry x="354" y="90" width="120" height="80" as="geometry" />
        </mxCell>
        <mxCell id="S36NjcAxN4NFea5-tyP3-4" style="edgeStyle=orthogonalEdgeStyle;rounded=0;orthogonalLoop=1;jettySize=auto;html=1;exitX=0.5;exitY=1;exitDx=0;exitDy=0;" edge="1" parent="1" source="S36NjcAxN4NFea5-tyP3-2">
          <mxGeometry relative="1" as="geometry">
            <mxPoint x="414" y="320" as="targetPoint" />
          </mxGeometry>
        </mxCell>
        <mxCell id="S36NjcAxN4NFea5-tyP3-2" value="&lt;div&gt;podaj liczbÄ™ ocen = a&lt;/div&gt;&lt;div&gt;i=a&lt;/div&gt;&lt;div&gt;suma = 0&lt;br&gt;&lt;/div&gt;" style="rounded=0;whiteSpace=wrap;html=1;" vertex="1" parent="1">
          <mxGeometry x="354" y="210" width="120" height="60" as="geometry" />
        </mxCell>
        <mxCell id="S36NjcAxN4NFea5-tyP3-6" style="edgeStyle=orthogonalEdgeStyle;rounded=0;orthogonalLoop=1;jettySize=auto;html=1;exitX=0;exitY=0.5;exitDx=0;exitDy=0;" edge="1" parent="1" source="S36NjcAxN4NFea5-tyP3-5">
          <mxGeometry relative="1" as="geometry">
            <mxPoint x="300" y="360" as="targetPoint" />
          </mxGeometry>
        </mxCell>
        <mxCell id="S36NjcAxN4NFea5-tyP3-10" style="edgeStyle=orthogonalEdgeStyle;rounded=0;orthogonalLoop=1;jettySize=auto;html=1;exitX=1;exitY=0.5;exitDx=0;exitDy=0;" edge="1" parent="1" source="S36NjcAxN4NFea5-tyP3-5">
          <mxGeometry relative="1" as="geometry">
            <mxPoint x="520" y="360" as="targetPoint" />
          </mxGeometry>
        </mxCell>
        <mxCell id="S36NjcAxN4NFea5-tyP3-5" value="i &amp;gt; 0" style="rhombus;whiteSpace=wrap;html=1;" vertex="1" parent="1">
          <mxGeometry x="359" y="320" width="110" height="80" as="geometry" />
        </mxCell>
        <mxCell id="S36NjcAxN4NFea5-tyP3-7" value="Tak" style="text;html=1;align=center;verticalAlign=middle;resizable=0;points=[];autosize=1;strokeColor=none;fillColor=none;" vertex="1" parent="1">
          <mxGeometry x="310" y="335" width="40" height="30" as="geometry" />
        </mxCell>
        <mxCell id="S36NjcAxN4NFea5-tyP3-9" style="edgeStyle=orthogonalEdgeStyle;rounded=0;orthogonalLoop=1;jettySize=auto;html=1;exitX=0.5;exitY=0;exitDx=0;exitDy=0;entryX=0.5;entryY=0;entryDx=0;entryDy=0;" edge="1" parent="1" source="S36NjcAxN4NFea5-tyP3-8" target="S36NjcAxN4NFea5-tyP3-5">
          <mxGeometry relative="1" as="geometry" />
        </mxCell>
        <mxCell id="S36NjcAxN4NFea5-tyP3-8" value="&lt;div&gt;pobierz n &lt;br&gt;&lt;/div&gt;&lt;div&gt;suma = suma + n&lt;/div&gt;&lt;div&gt;i = i - 1&lt;br&gt;&lt;/div&gt;" style="rounded=0;whiteSpace=wrap;html=1;" vertex="1" parent="1">
          <mxGeometry x="180" y="335" width="120" height="60" as="geometry" />
        </mxCell>
        <mxCell id="S36NjcAxN4NFea5-tyP3-13" style="edgeStyle=orthogonalEdgeStyle;rounded=0;orthogonalLoop=1;jettySize=auto;html=1;exitX=0.5;exitY=1;exitDx=0;exitDy=0;entryX=0.5;entryY=0;entryDx=0;entryDy=0;" edge="1" parent="1" source="S36NjcAxN4NFea5-tyP3-11" target="S36NjcAxN4NFea5-tyP3-12">
          <mxGeometry relative="1" as="geometry" />
        </mxCell>
        <mxCell id="S36NjcAxN4NFea5-tyP3-11" value="Wyswietl suma / a" style="rounded=0;whiteSpace=wrap;html=1;" vertex="1" parent="1">
          <mxGeometry x="520" y="330" width="120" height="60" as="geometry" />
        </mxCell>
        <mxCell id="S36NjcAxN4NFea5-tyP3-12" value="Stop" style="ellipse;whiteSpace=wrap;html=1;" vertex="1" parent="1">
          <mxGeometry x="520" y="420" width="120" height="80" as="geometry" />
        </mxCell>
        <mxCell id="S36NjcAxN4NFea5-tyP3-16" value="Nie" style="text;html=1;align=center;verticalAlign=middle;resizable=0;points=[];autosize=1;strokeColor=none;fillColor=none;" vertex="1" parent="1">
          <mxGeometry x="469" y="330" width="40" height="30" as="geometry" />
        </mxCell>
      </root>
    </mxGraphModel>
  </diagram>
</mxfile>
